<svg width="32" height="32" viewBox="0 0 32 32" fill="none" xmlns="http://www.w3.org/2000/svg">
<path d="M14.7071 11.3737C15.0976 10.9832 15.0976 10.35 14.7071 9.95952C14.3166 9.56899 13.6834 9.56899 13.2929 9.95952L7.95955 15.2929C7.76429 15.4881 7.66666 15.744 7.66666 16C7.66666 16.1355 7.69364 16.2648 7.74254 16.3827C7.79134 16.5007 7.86367 16.6112 7.95955 16.7071L13.2929 22.0404C13.6834 22.4309 14.3166 22.4309 14.7071 22.0404C15.0976 21.6499 15.0976 21.0167 14.7071 20.6262L11.0809 17H24C24.5523 17 25 16.5522 25 16C25 15.4477 24.5523 15 24 15H11.0809L14.7071 11.3737Z" fill="white"/>
</svg>
